PathFileType	4	(X/Y/Z)	46_2_63_p1_0-770_filt_butterworth.trc
DataRate	CameraRate	NumFrames	NumMarkers	Units	OrigDataRate	OrigDataStartFrame	OrigNumFrames
60.0	60.0	7	27	m	60.0	96	770
Frame#	Time	RHip			RKnee			RAnkle			RBigToe			RSmallToe			RHeel			LHip			LKnee			LAnkle			LBigToe			LSmallToe			LHeel			Neck			Head			Nose			RShoulder			RElbow			RWrist			RThumb			RIndex			RPinky			LShoulder			LElbow			LWrist			LThumb			LIndex			LPinky			
		X1	Y1	Z1	X2	Y2	Z2	X3	Y3	Z3	X4	Y4	Z4	X5	Y5	Z5	X6	Y6	Z6	X7	Y7	Z7	X8	Y8	Z8	X9	Y9	Z9	X10	Y10	Z10	X11	Y11	Z11	X12	Y12	Z12	X13	Y13	Z13	X14	Y14	Z14	X15	Y15	Z15	X16	Y16	Z16	X17	Y17	Z17	X18	Y18	Z18	X19	Y19	Z19	X20	Y20	Z20	X21	Y21	Z21	X22	Y22	Z22	X23	Y23	Z23	X24	Y24	Z24	X25	Y25	Z25	X26	Y26	Z26	X27	Y27	Z27	
96	1.6	0.4025794323282248	0.3733374269635072	0.6455656125294219	0.38915561919610403	0.4898996242534428	1.128037623993796	0.3758318659528605	0.51415380079813	1.52287267368557	0.35855061473364425	0.37654134106286474	1.5368577910214378	0.41426635574144094	0.35731488177644133	1.5151820244424705	0.34148123359472315	0.6096468947079622	1.607026017871703	0.1822795742238656	0.41691799028324383	0.6782873243306483	0.16071727701712535	0.4726101527861182	1.1367536855570957	0.1555393994655448	0.4958461341482719	1.5350286928386105	0.19765635758961544	0.32749889694784035	1.5221959739142954	0.15442608326283486	0.328995046973663	1.5142479808277718	0.16112424467213607	0.5397822365079247	1.583262495747488	0.291383272199081	0.4028937289353764	0.14557308276193912	0.30548525833932894	0.3534195446697876	-0.10659050967771097	0.30394731813340525	0.3108160123565654	0.020216887110239713	0.4354926591122203	0.3838382945740278	0.22070380943346607	0.485361740707966	0.31129096500170295	0.4461198264238202	0.3367353034945531	0.25044571182718217	0.6303252789705031	0.29480185688061733	0.2651769412061387	0.7303009404430334	0.2860703162439966	0.27146929125242614	0.743368492590594	0.28031967624188076	0.27037236364499484	0.7328176047427155	0.13421711135570627	0.3598070687388203	0.2131739897546368	0.1024380446092587	0.3009600370151549	0.45605292159417227	0.22708857042325203	0.21832293692989208	0.6345462457457571	0.32288528533619726	0.2221716633607317	0.6704073034199314	0.3259718896385873	0.23615873646804705	0.7263063833817902	0.27580846643966317	0.2516372561512936	0.7541137237911304
97	1.6166666666666667	0.4011764521187886	0.3770045516038305	0.645472210059199	0.3889217524425008	0.4903293029026858	1.1274489901311162	0.37571467207610276	0.5139492850576407	1.5221857749791434	0.3588202539957585	0.37809529446396845	1.53782831396279	0.4144643033572911	0.35996757074173075	1.5150160333830027	0.34146045545869774	0.6095810511958759	1.6070424309489888	0.18406569062440517	0.4171253322127215	0.6762786212642141	0.16074383470752468	0.47261210033521817	1.1366889551890806	0.15504584140323957	0.4920900368563592	1.5330328110585763	0.19754285155850787	0.32729703302942637	1.5213697631648246	0.15246187590780388	0.3321701487169341	1.5166878202979217	0.1612506858605589	0.5392514262686201	1.5841079615218643	0.2909869897714099	0.40272615827907593	0.14552541995959692	0.30474616675726107	0.3494124369729522	-0.10666052725792816	0.30392838038702624	0.3107493802519323	0.020190800965802867	0.43432743804944	0.38312405468711586	0.2184415319302052	0.4853233239356825	0.3113707369939522	0.44510212961057616	0.3368388410700961	0.2502400266109748	0.6306038872332442	0.2937211744636212	0.264991397676413	0.730664699653914	0.28665326912568406	0.26846046551307956	0.7445551730191026	0.28013804957939487	0.2687735755326176	0.7328473377715097	0.13421070835903876	0.3596706920374749	0.21308568141633222	0.10400532939620481	0.30104738274211934	0.4560815795360667	0.22813286273773378	0.21893331793609552	0.6357568572645146	0.3226468889538918	0.22213225228219735	0.6702447672943168	0.32471445826435885	0.24018293202344765	0.7279510950984245	0.27583188715215873	0.25176379938204135	0.7541084872547528
98	1.6333333333333333	0.4006137672435383	0.3785777453133056	0.6454382372960822	0.38899025846949725	0.49045070855409867	1.126568195638034	0.3757018243006185	0.5138244904131087	1.5221492174355475	0.35880118892069407	0.37808757984690705	1.5378352159354798	0.4148370317899226	0.3637968572819639	1.515748511426181	0.3421228059035346	0.60783231912798	1.6060986076381758	0.18352012020412278	0.41754310245692433	0.6757597681150628	0.16076485878584315	0.4726282343777075	1.1367109434926252	0.1548505042639693	0.49060257823473086	1.5322722027778402	0.19752624807009017	0.32708648052744266	1.5210992961621261	0.150795312791948	0.33292458767082717	1.5180115641922765	0.16138302278128122	0.538712389524098	1.5853647655189749	0.2909644218171492	0.402749457348733	0.14550584550494072	0.30418149327727645	0.34635411071789507	-0.10670796657458903	0.303721722122381	0.3096423975566817	0.020082382773403986	0.433757761004703	0.3828165499456759	0.216255926286429	0.48532012052949275	0.31138145584209914	0.44475692213825135	0.33690630667132504	0.24990404185640075	0.6314958905020205	0.2932602802071193	0.2650585272031938	0.7310905765838669	0.2866477770536575	0.26721073837116094	0.7464585035667775	0.2784678744473308	0.26977843093264436	0.7345270811284857	0.1341681513700015	0.3594262177974855	0.2122346064305702	0.10464516046190006	0.30122275313245694	0.45614294890601353	0.22935396232711575	0.21970253071093943	0.6363043111454438	0.3225699424034909	0.22215092026209105	0.670276079081657	0.3236587625838656	0.243237764923482	0.7303297581835377	0.27581613064628585	0.2519289734704162	0.7540892557290573
99	1.65	0.4005999293955634	0.37872899565762996	0.6454712930117198	0.38916606513733476	0.4904226856224704	1.1260016650626388	0.3757249048248702	0.5137500686487968	1.522303228089635	0.3586318890681812	0.3775048660155206	1.5370825526501501	0.4152416652218712	0.3668892687925237	1.5168439608650977	0.3438389618544745	0.6035409990308311	1.6036259957819496	0.1811475275336921	0.41798228346052607	0.6763251598618646	0.16076422312912764	0.4726520535663563	1.1367823996320188	0.1548442776145615	0.4905781918304511	1.53228532227398	0.1975605069083644	0.3270457735437134	1.5218515525355525	0.14916949459773768	0.33246772008854275	1.5184589961241937	0.16140125297492583	0.5385202454253734	1.5864573660823915	0.2910341333075392	0.4028232304883299	0.1455457078940938	0.3039552411982014	0.34512376535067596	-0.10672969725794879	0.3032222971532279	0.3069615969954254	0.01993094191540952	0.43364511604186	0.3828222854650932	0.2149803803191894	0.4853525024405747	0.3112671903849744	0.44514805688997233	0.3369551483659677	0.24962429616890508	0.6327209009758306	0.2931216844011313	0.26520459263277274	0.7316682661277997	0.2864996665416679	0.26701096858268986	0.7483566958895619	0.2766279518557169	0.27422593765583003	0.7372616355903335	0.13410955539769207	0.3590935202268463	0.21110122208748033	0.1047060993568988	0.3013891667854754	0.45620593557027345	0.23028220835577878	0.22014880460216535	0.6364350899050961	0.3226143862308989	0.2221798880830573	0.6710837666261272	0.3231618602361905	0.24432125684158196	0.7329053435113508	0.27578604831806625	0.2520821176656266	0.7540675315708689
100	1.6666666666666667	0.40072608611639493	0.3784617638266754	0.6455425000982493	0.38927610571951543	0.4903637690372983	1.1259091807509902	0.3757541877814244	0.5137225429120111	1.5224188948335937	0.3583858376502687	0.3767861358615502	1.5355949951882149	0.41546323508095634	0.3681998506613431	1.5175173593069506	0.3461174709343542	0.597882252095824	1.600275670565376	0.1785382437404087	0.41819808384470625	0.6771316119836618	0.16074744412312061	0.4726720573170208	1.136851197192312	0.15488923111172656	0.49091545728754576	1.532479828520198	0.19758806547173988	0.32716608567680316	1.5228744267175123	0.14792280044881323	0.33199206913716267	1.5185657369562788	0.1612971823359359	0.5387201700707053	1.5870504518810997	0.2910765521932742	0.40287652083567177	0.1456499620549512	0.30396471543439774	0.3450983261126338	-0.1067387208995261	0.30257884628764875	0.3035536548485106	0.01989915387811327	0.4337052567777207	0.3829166081739739	0.2146387684532752	0.4854350268385863	0.3110786684336464	0.44622667975434005	0.33705008518674967	0.24950152585401666	0.6336724296079097	0.2929377370943933	0.26535437148426383	0.7328823950302333	0.2864301275890059	0.2670417645697014	0.7495095171807853	0.2757508555883801	0.28075343089247307	0.7395627560812272	0.13406330929223612	0.358822001646082	0.21028135856529823	0.10462902963717183	0.30147466975022497	0.456244767759985	0.2306381279952516	0.22025121599374137	0.6363268901204386	0.32268400983019857	0.22219152362590372	0.672810620295517	0.32315056480879323	0.2440718544409632	0.7348430959478317	0.27577005352859507	0.25218507991880884	0.7540567019079959
101	1.6833333333333331	0.4008060549647868	0.37826788699413577	0.6456326329422882	0.38934283554974425	0.4902119928047806	1.1263469429458575	0.37578514134021834	0.5137368597116763	1.522452651044416	0.35814444300947634	0.37615820483150797	1.5338931328785474	0.415503079255858	0.36825305245502	1.5176598734406912	0.34786914558725107	0.5935564548432263	1.5975543193426944	0.17692996983863904	0.4181834977895076	0.6773131929759308	0.16073360102864984	0.4726781636321229	1.1368947025938532	0.15492894875899224	0.49112448457072	1.5326117742632008	0.1976667208520611	0.3273350375930345	1.523304969620973	0.14741270348076815	0.3318104113618045	1.5184114431828502	0.1613336323848802	0.5386891927746771	1.5870477105036582	0.2910801777414631	0.4029153719583175	0.1457226462702122	0.3040677990950169	0.34540430370699005	-0.10674131114861711	0.30209546221863937	0.3011010225571461	0.02022472420887185	0.43376983058569907	0.3829841346805694	0.2147421329907387	0.48555369201054405	0.31103180658121615	0.44765275297446133	0.3371998937092438	0.2494521978639994	0.6340687446105961	0.2925430304733663	0.26559143180730255	0.7348235804988372	0.2864469638412501	0.26701722992424276	0.7498701757514074	0.276021267344499	0.2839504268407183	0.7398629062282609	0.13404181715624452	0.35869225223483053	0.2100206342816699	0.1045839231662623	0.30148247567821207	0.4562497275016396	0.23062155237673063	0.22011246655407604	0.6357757111357935	0.32271878905654483	0.2221434357738461	0.6744823262965808	0.32328935642337775	0.24357124421487783	0.7358619767918191	0.27576948916043786	0.25221479882146575	0.7540552103964562
102	1.7	0.40082862058753904	0.378217725957276	0.6457266462765175	0.38944950005539536	0.4898827105212338	1.1273762016228037	0.3758131284237969	0.5137693792710543	1.5224342170252079	0.35801979968226044	0.3758915443100551	1.532950089878058	0.41548082199071457	0.3679518083976994	1.5175670774450438	0.3485836644271764	0.5918967156302269	1.5962050158395822	0.17652646111985723	0.41808879246542785	0.6765921858655506	0.16073471570837347	0.47266302036901997	1.1369006889976228	0.15495288184313366	0.49116910798806923	1.532666303952696	0.19787327604710372	0.3275564152804834	1.5233062342002224	0.14750407239306165	0.33172996420442197	1.517440759111362	0.16206967030931782	0.5371448887226917	1.5860593388407227	0.2910529687548717	0.40298035686128186	0.14547858308850417	0.3041751847785497	0.3456017905603208	-0.10673246529588663	0.30188463212882477	0.30020507146211756	0.02098461281524421	0.4337949963220222	0.3830089865039876	0.21489027780625308	0.4856546461363594	0.31132183859303314	0.4487573948518947	0.3373515877385378	0.24933598194298018	0.6340937370899644	0.29206839431590614	0.26580541890580883	0.7366490744902524	0.28651496375100666	0.2669234871891665	0.7498436338595528	0.27698878005443267	0.28037204316050224	0.737713252919422	0.1340319597755587	0.3586548726610161	0.21001516653263708	0.10457166005057542	0.3014524088895547	0.45622989732723873	0.2305090819255803	0.21979407809131	0.6345403890271959	0.3227296910896958	0.22197511862821953	0.6747987695324913	0.3233916901130015	0.24329556316223916	0.7361304729032383	0.27575908508508457	0.25210770468049915	0.7540353278339804
